<?xml version="1.0" encoding="UTF-8" standalone="no"?>
<!DOCTYPE svg PUBLIC "-//W3C//DTD SVG 1.1//EN"
 "http://www.w3.org/Graphics/SVG/1.1/DTD/svg11.dtd">
<!-- Generated by graphviz version 16.1.0 (0)
 -->
<!-- Title: dfd_1c Pages: 1 -->
<svg width="2008pt" height="720pt"
 viewBox="0.00 0.00 2008.00 720.00" xmlns="http://www.w3.org/2000/svg" xmlns:xlink="http://www.w3.org/1999/xlink">
<g id="graph0" class="graph" transform="scale(1 1) rotate(0) translate(21.6 698.73)">
<title>dfd_1c</title>
<polygon fill="white" stroke="none" points="-21.6,21.6 -21.6,-698.73 1986.1,-698.73 1986.1,21.6 -21.6,21.6"/>
<!-- e_conf -->
<g id="node1" class="node">
<title>e_conf</title>
<polygon fill="#e6e7ec" stroke="#454c57" stroke-width="1.2" points="167.5,-270 0,-270 0,-234 167.5,-234 167.5,-270"/>
<polygon fill="#e6e7ec" stroke="none" points="0,-237 0,-267 167.5,-267 167.5,-237 0,-237"/>
<text xml:space="preserve" text-anchor="start" x="5" y="-252.55" font-family="Source Han Sans CN" font-weight="bold" font-size="11.00" fill="#1f2a37">E5</text>
<text xml:space="preserve" text-anchor="start" x="18.5" y="-252.55" font-family="Source Han Sans CN" font-size="11.00" fill="#1f2a37"> 角色与配置</text>
<text xml:space="preserve" text-anchor="start" x="5" y="-243.45" font-family="Source Han Sans CN" font-size="9.00" fill="#6b7280">role_templates.json · providers.json</text>
</g>
<!-- p0 -->
<g id="node2" class="node">
<title>p0</title>
<path fill="#e9f2fd" stroke="#3a72b0" stroke-width="1.2" d="M513.75,-270C513.75,-270 331.75,-270 331.75,-270 325.75,-270 319.75,-264 319.75,-258 319.75,-258 319.75,-246 319.75,-246 319.75,-240 325.75,-234 331.75,-234 331.75,-234 513.75,-234 513.75,-234 519.75,-234 525.75,-240 525.75,-246 525.75,-246 525.75,-258 525.75,-258 525.75,-264 519.75,-270 513.75,-270"/>
<path fill="#e9f2fd" stroke="none" d="M329.75,-237C329.75,-237 515.75,-237 515.75,-237 520.75,-237 525.75,-242 525.75,-247 525.75,-247 525.75,-257 525.75,-257 525.75,-262 520.75,-267 515.75,-267 515.75,-267 329.75,-267 329.75,-267 324.75,-267 319.75,-262 319.75,-257 319.75,-257 319.75,-247 319.75,-247 319.75,-242 324.75,-237 329.75,-237"/>
<polygon fill="#3a72b0" stroke="none" points="319.75,-237 319.75,-267 344,-267 344,-237 319.75,-237"/>
<text xml:space="preserve" text-anchor="start" x="324.75" y="-251.18" font-family="Source Han Sans CN" font-weight="bold" font-size="11.00" fill="white">P0</text>
<text xml:space="preserve" text-anchor="start" x="349" y="-252.55" font-family="Source Han Sans CN" font-size="11.00" fill="#1f2a37">CompanyBuilder + ToolkitCatalog</text>
<text xml:space="preserve" text-anchor="start" x="349" y="-243.45" font-family="Source Han Sans CN" font-size="9.00" fill="#5a6472">唯一知道全部具体类的装配点</text>
</g>
<!-- e_conf&#45;&gt;p0 -->
<g id="edge1" class="edge">
<title>e_conf&#45;&gt;p0</title>
<path fill="none" stroke="#b8526a" stroke-width="1.4" d="M168.05,-252C210.19,-252 261.97,-252 307.74,-252"/>
<polygon fill="#b8526a" stroke="#b8526a" stroke-width="1.4" points="317.53,-252 307.53,-256.5 314.24,-252.2 307.53,-252.2 307.53,-252 307.53,-251.8 314.24,-251.8 307.53,-247.5 317.53,-252"/>
<text xml:space="preserve" text-anchor="middle" x="243.62" y="-256.95" font-family="Source Han Sans CN" font-size="9.00" fill="#374151"> 角色定义 + 模型端点 </text>
</g>
<!-- p0b -->
<g id="node3" class="node">
<title>p0b</title>
<path fill="#e9f2fd" stroke="#3a72b0" stroke-width="1.2" d="M881.75,-219C881.75,-219 746.25,-219 746.25,-219 740.25,-219 734.25,-213 734.25,-207 734.25,-207 734.25,-195 734.25,-195 734.25,-189 740.25,-183 746.25,-183 746.25,-183 881.75,-183 881.75,-183 887.75,-183 893.75,-189 893.75,-195 893.75,-195 893.75,-207 893.75,-207 893.75,-213 887.75,-219 881.75,-219"/>
<path fill="#e9f2fd" stroke="none" d="M744.25,-186C744.25,-186 883.75,-186 883.75,-186 888.75,-186 893.75,-191 893.75,-196 893.75,-196 893.75,-206 893.75,-206 893.75,-211 888.75,-216 883.75,-216 883.75,-216 744.25,-216 744.25,-216 739.25,-216 734.25,-211 734.25,-206 734.25,-206 734.25,-196 734.25,-196 734.25,-191 739.25,-186 744.25,-186"/>
<polygon fill="#3a72b0" stroke="none" points="734.25,-186 734.25,-216 769,-216 769,-186 734.25,-186"/>
<text xml:space="preserve" text-anchor="start" x="739.25" y="-200.18" font-family="Source Han Sans CN" font-weight="bold" font-size="11.00" fill="white">P0.1</text>
<text xml:space="preserve" text-anchor="start" x="774" y="-201.55" font-family="Source Han Sans CN" font-size="11.00" fill="#1f2a37">Company</text>
<text xml:space="preserve" text-anchor="start" x="774" y="-192.45" font-family="Source Han Sans CN" font-size="9.00" fill="#5a6472">组合根：start / stop / pause</text>
</g>
<!-- p0&#45;&gt;p0b -->
<g id="edge2" class="edge">
<title>p0&#45;&gt;p0b</title>
<path fill="none" stroke="#b8526a" stroke-width="1.4" d="M526.28,-238.57C587.2,-230.58 663.77,-220.55 722.45,-212.86"/>
<polygon fill="#b8526a" stroke="#b8526a" stroke-width="1.4" points="732.25,-211.58 722.92,-217.34 729.01,-212.21 722.36,-213.08 722.33,-212.88 722.31,-212.68 728.96,-211.81 721.75,-208.42 732.25,-211.58"/>
<text xml:space="preserve" text-anchor="middle" x="630" y="-239" font-family="Source Han Sans CN" font-size="9.00" fill="#374151"> new Company(...) </text>
</g>
<!-- p14 -->
<g id="node11" class="node">
<title>p14</title>
<path fill="#e9f2fd" stroke="#3a72b0" stroke-width="1.2" d="M880.62,-359C880.62,-359 747.38,-359 747.38,-359 741.38,-359 735.38,-353 735.38,-347 735.38,-347 735.38,-335 735.38,-335 735.38,-329 741.38,-323 747.38,-323 747.38,-323 880.62,-323 880.62,-323 886.62,-323 892.62,-329 892.62,-335 892.62,-335 892.62,-347 892.62,-347 892.62,-353 886.62,-359 880.62,-359"/>
<path fill="#e9f2fd" stroke="none" d="M745.38,-326C745.38,-326 882.62,-326 882.62,-326 887.62,-326 892.62,-331 892.62,-336 892.62,-336 892.62,-346 892.62,-346 892.62,-351 887.62,-356 882.62,-356 882.62,-356 745.38,-356 745.38,-356 740.38,-356 735.38,-351 735.38,-346 735.38,-346 735.38,-336 735.38,-336 735.38,-331 740.38,-326 745.38,-326"/>
<polygon fill="#3a72b0" stroke="none" points="735.38,-326 735.38,-356 766.38,-356 766.38,-326 735.38,-326"/>
<text xml:space="preserve" text-anchor="start" x="740.38" y="-340.18" font-family="Source Han Sans CN" font-weight="bold" font-size="11.00" fill="white">P14</text>
<text xml:space="preserve" text-anchor="start" x="771.38" y="-341.55" font-family="Source Han Sans CN" font-size="11.00" fill="#1f2a37">Staffing / HiringService</text>
<text xml:space="preserve" text-anchor="start" x="771.38" y="-332.45" font-family="Source Han Sans CN" font-size="9.00" fill="#5a6472">招聘 · 上岗 · 离职</text>
</g>
<!-- p0&#45;&gt;p14 -->
<g id="edge4" class="edge">
<title>p0&#45;&gt;p14</title>
<path fill="none" stroke="#b8526a" stroke-width="1.4" d="M490.52,-270.58C512.21,-276.41 536.45,-282.71 558.75,-288 613.29,-300.95 674.81,-313.82 723.68,-323.63"/>
<polygon fill="#b8526a" stroke="#b8526a" stroke-width="1.4" points="733.19,-325.53 722.5,-327.99 729.92,-325.08 723.34,-323.77 723.38,-323.57 723.42,-323.38 730,-324.69 724.26,-319.16 733.19,-325.53"/>
<text xml:space="preserve" text-anchor="middle" x="630" y="-323.12" font-family="Source Han Sans CN" font-size="9.00" fill="#374151"> 注入 ShellRegistry / AgentFactory </text>
</g>
<!-- d8 -->
<g id="node12" class="node">
<title>d8</title>
<polyline fill="none" stroke="#9a8b3a" points="1238.12,-282 1110.62,-282"/>
<text xml:space="preserve" text-anchor="start" x="1113.62" y="-261.55" font-family="Source Han Sans CN" font-weight="bold" font-size="11.00" fill="#3b3a2a">D8</text>
<text xml:space="preserve" text-anchor="start" x="1127.88" y="-261.55" font-family="Source Han Sans CN" font-size="11.00" fill="#3b3a2a"> Team / Agent</text>
<text xml:space="preserve" text-anchor="start" x="1113.62" y="-252.45" font-family="Source Han Sans CN" font-size="9.00" fill="#6b7280">花名册 · 状态 · 队列 · 历史</text>
<polyline fill="none" stroke="#9a8b3a" points="1110.62,-240 1238.12,-240"/>
</g>
<!-- p0&#45;&gt;d8 -->
<g id="edge3" class="edge">
<title>p0&#45;&gt;d8</title>
<path fill="none" stroke="#b8526a" stroke-width="1.4" d="M526.02,-253.23C676.1,-255.03 953.07,-258.36 1090.94,-260.01"/>
<polygon fill="#b8526a" stroke="#b8526a" stroke-width="1.4" points="1100.93,-260.13 1090.88,-264.51 1097.63,-260.29 1090.93,-260.21 1090.93,-260.01 1090.93,-259.81 1097.64,-259.89 1090.98,-255.51 1100.93,-260.13"/>
<text xml:space="preserve" text-anchor="middle" x="814" y="-262.49" font-family="Source Han Sans CN" font-size="9.00" fill="#374151"> 注册全部 Agent </text>
</g>
<!-- d2 -->
<g id="node14" class="node">
<title>d2</title>
<polyline fill="none" stroke="#9a8b3a" points="1045.25,-171 947.75,-171"/>
<text xml:space="preserve" text-anchor="start" x="950.75" y="-150.55" font-family="Source Han Sans CN" font-weight="bold" font-size="11.00" fill="#3b3a2a">D2</text>
<text xml:space="preserve" text-anchor="start" x="965" y="-150.55" font-family="Source Han Sans CN" font-size="11.00" fill="#3b3a2a"> ScheduleTable</text>
<text xml:space="preserve" text-anchor="start" x="950.75" y="-141.45" font-family="Source Han Sans CN" font-size="9.00" fill="#6b7280">定时提醒</text>
<polyline fill="none" stroke="#9a8b3a" points="947.75,-129 1045.25,-129"/>
</g>
<!-- p0&#45;&gt;d2 -->
<g id="edge5" class="edge">
<title>p0&#45;&gt;d2</title>
<path fill="none" stroke="#4b5563" stroke-width="1.2" d="M479.61,-233.48C503.8,-225.76 532.54,-216.98 558.75,-210 635.96,-189.45 655.24,-182.9 734.25,-171 799.96,-161.11 875.71,-155.67 928.67,-152.82"/>
<polygon fill="#4b5563" stroke="#4b5563" stroke-width="1.2" points="938.49,-152.31 928.73,-157.32 934.96,-152.59 928.51,-152.93 928.5,-152.83 928.5,-152.73 934.95,-152.39 928.27,-148.33 938.49,-152.31"/>
</g>
<!-- p0b&#45;&gt;d8 -->
<g id="edge21" class="edge">
<title>p0b&#45;&gt;d8</title>
<path fill="none" stroke="#4b5563" stroke-width="1.2" d="M894.23,-205.89C943.98,-209.89 1009.29,-216.85 1066.25,-228.5 1074.62,-230.21 1083.27,-232.29 1091.86,-234.57"/>
<polygon fill="#4b5563" stroke="#4b5563" stroke-width="1.2" points="1101.27,-237.15 1090.44,-238.84 1097.84,-236.31 1091.6,-234.6 1091.63,-234.5 1091.66,-234.41 1097.89,-236.12 1092.82,-230.17 1101.27,-237.15"/>
<text xml:space="preserve" text-anchor="middle" x="996.5" y="-233.45" font-family="Source Han Sans CN" font-size="9.00" fill="#374151"> 暂停门广播（等待中的角色挂起） </text>
</g>
<!-- p3 -->
<g id="node4" class="node">
<title>p3</title>
<path fill="#e9f2fd" stroke="#3a72b0" stroke-width="1.2" d="M460.88,-57C460.88,-57 384.62,-57 384.62,-57 378.62,-57 372.62,-51 372.62,-45 372.62,-45 372.62,-33 372.62,-33 372.62,-27 378.62,-21 384.62,-21 384.62,-21 460.88,-21 460.88,-21 466.88,-21 472.88,-27 472.88,-33 472.88,-33 472.88,-45 472.88,-45 472.88,-51 466.88,-57 460.88,-57"/>
<path fill="#e9f2fd" stroke="none" d="M382.62,-24C382.62,-24 462.88,-24 462.88,-24 467.88,-24 472.88,-29 472.88,-34 472.88,-34 472.88,-44 472.88,-44 472.88,-49 467.88,-54 462.88,-54 462.88,-54 382.62,-54 382.62,-54 377.62,-54 372.62,-49 372.62,-44 372.62,-44 372.62,-34 372.62,-34 372.62,-29 377.62,-24 382.62,-24"/>
<polygon fill="#3a72b0" stroke="none" points="372.62,-24 372.62,-54 396.88,-54 396.88,-24 372.62,-24"/>
<text xml:space="preserve" text-anchor="start" x="377.62" y="-38.17" font-family="Source Han Sans CN" font-weight="bold" font-size="11.00" fill="white">P3</text>
<text xml:space="preserve" text-anchor="start" x="401.88" y="-39.55" font-family="Source Han Sans CN" font-size="11.00" fill="#1f2a37">ShiftDirector</text>
<text xml:space="preserve" text-anchor="start" x="401.88" y="-30.45" font-family="Source Han Sans CN" font-size="9.00" fill="#5a6472">onShiftEnd 边界</text>
</g>
<!-- p11 -->
<g id="node5" class="node">
<title>p11</title>
<path fill="#e9f2fd" stroke="#3a72b0" stroke-width="1.2" d="M878.38,-101C878.38,-101 749.62,-101 749.62,-101 743.62,-101 737.62,-95 737.62,-89 737.62,-89 737.62,-77 737.62,-77 737.62,-71 743.62,-65 749.62,-65 749.62,-65 878.38,-65 878.38,-65 884.38,-65 890.38,-71 890.38,-77 890.38,-77 890.38,-89 890.38,-89 890.38,-95 884.38,-101 878.38,-101"/>
<path fill="#e9f2fd" stroke="none" d="M747.62,-68C747.62,-68 880.38,-68 880.38,-68 885.38,-68 890.38,-73 890.38,-78 890.38,-78 890.38,-88 890.38,-88 890.38,-93 885.38,-98 880.38,-98 880.38,-98 747.62,-98 747.62,-98 742.62,-98 737.62,-93 737.62,-88 737.62,-88 737.62,-78 737.62,-78 737.62,-73 742.62,-68 747.62,-68"/>
<polygon fill="#3a72b0" stroke="none" points="737.62,-68 737.62,-98 768.62,-98 768.62,-68 737.62,-68"/>
<text xml:space="preserve" text-anchor="start" x="742.62" y="-82.17" font-family="Source Han Sans CN" font-weight="bold" font-size="11.00" fill="white">P11</text>
<text xml:space="preserve" text-anchor="start" x="773.62" y="-83.55" font-family="Source Han Sans CN" font-size="11.00" fill="#1f2a37">ConversationMemory</text>
<text xml:space="preserve" text-anchor="start" x="773.62" y="-74.45" font-family="Source Han Sans CN" font-size="9.00" fill="#5a6472">closeDay</text>
</g>
<!-- p3&#45;&gt;p11 -->
<g id="edge6" class="edge">
<title>p3&#45;&gt;p11</title>
<path fill="none" stroke="#b8526a" stroke-width="1.4" d="M473.42,-43.93C528.97,-49.53 621.62,-59.1 701.25,-68.5 709.26,-69.45 717.6,-70.46 725.94,-71.5"/>
<polygon fill="#b8526a" stroke="#b8526a" stroke-width="1.4" points="735.6,-72.72 725.11,-75.94 732.3,-72.51 725.65,-71.67 725.67,-71.47 725.7,-71.27 732.35,-72.11 726.24,-67.01 735.6,-72.72"/>
<text xml:space="preserve" text-anchor="middle" x="630" y="-73.45" font-family="Source Han Sans CN" font-size="9.00" fill="#374151"> onShiftEnd </text>
</g>
<!-- d6 -->
<g id="node6" class="node">
<title>d6</title>
<polyline fill="none" stroke="#9a8b3a" points="1033.62,-46 959.38,-46"/>
<text xml:space="preserve" text-anchor="start" x="962.38" y="-25.55" font-family="Source Han Sans CN" font-weight="bold" font-size="11.00" fill="#3b3a2a">D6</text>
<text xml:space="preserve" text-anchor="start" x="976.62" y="-25.55" font-family="Source Han Sans CN" font-size="11.00" fill="#3b3a2a"> NoteBook</text>
<text xml:space="preserve" text-anchor="start" x="962.38" y="-16.45" font-family="Source Han Sans CN" font-size="9.00" fill="#6b7280">当日总结</text>
<polyline fill="none" stroke="#9a8b3a" points="959.38,-4 1033.62,-4"/>
</g>
<!-- p3&#45;&gt;d6 -->
<g id="edge7" class="edge">
<title>p3&#45;&gt;d6</title>
<path fill="none" stroke="#b8526a" stroke-width="1.4" d="M473.43,-36.72C498.93,-35.62 530.5,-34.35 558.75,-33.5 695.67,-29.38 856.79,-26.84 939.81,-25.71"/>
<polygon fill="#b8526a" stroke="#b8526a" stroke-width="1.4" points="949.77,-25.57 939.83,-30.21 946.48,-25.82 939.78,-25.91 939.77,-25.71 939.77,-25.51 946.48,-25.42 939.71,-21.21 949.77,-25.57"/>
<text xml:space="preserve" text-anchor="middle" x="630" y="-38.45" font-family="Source Han Sans CN" font-size="9.00" fill="#374151"> 写当日总结 </text>
</g>
<!-- d3 -->
<g id="node7" class="node">
<title>d3</title>
<polyline fill="none" stroke="#9a8b3a" points="1241.5,-109 1107.25,-109"/>
<text xml:space="preserve" text-anchor="start" x="1110.25" y="-88.55" font-family="Source Han Sans CN" font-weight="bold" font-size="11.00" fill="#3b3a2a">D3</text>
<text xml:space="preserve" text-anchor="start" x="1124.5" y="-88.55" font-family="Source Han Sans CN" font-size="11.00" fill="#3b3a2a"> ConversationMemory</text>
<text xml:space="preserve" text-anchor="start" x="1110.25" y="-79.45" font-family="Source Han Sans CN" font-size="9.00" fill="#6b7280">当日对话</text>
<polyline fill="none" stroke="#9a8b3a" points="1107.25,-67 1241.5,-67"/>
</g>
<!-- p11&#45;&gt;d3 -->
<g id="edge8" class="edge">
<title>p11&#45;&gt;d3</title>
<path fill="none" stroke="#4b5563" stroke-width="1.2" d="M890.56,-84.05C948.34,-84.86 1028.03,-85.97 1088.09,-86.81"/>
<polygon fill="#4b5563" stroke="#4b5563" stroke-width="1.2" points="1097.99,-86.95 1087.92,-91.31 1094.45,-87 1087.99,-86.91 1087.99,-86.81 1087.99,-86.71 1094.45,-86.8 1088.05,-82.31 1097.99,-86.95"/>
<text xml:space="preserve" text-anchor="middle" x="996.5" y="-91.33" font-family="Source Han Sans CN" font-size="9.00" fill="#374151"> closeDay：压缩 + 归档 </text>
</g>
<!-- e_disk -->
<g id="node10" class="node">
<title>e_disk</title>
<polygon fill="#e6e7ec" stroke="#454c57" stroke-width="1.2" points="1964.5,-64 1829.25,-64 1829.25,-28 1964.5,-28 1964.5,-64"/>
<polygon fill="#e6e7ec" stroke="none" points="1829.25,-31 1829.25,-61 1964.5,-61 1964.5,-31 1829.25,-31"/>
<text xml:space="preserve" text-anchor="start" x="1834.25" y="-46.55" font-family="Source Han Sans CN" font-weight="bold" font-size="11.00" fill="#1f2a37">E4</text>
<text xml:space="preserve" text-anchor="start" x="1847.75" y="-46.55" font-family="Source Han Sans CN" font-size="11.00" fill="#1f2a37"> 宿主磁盘</text>
<text xml:space="preserve" text-anchor="start" x="1834.25" y="-37.45" font-family="Source Han Sans CN" font-size="9.00" fill="#6b7280">角色目录 / workdir / state.json</text>
</g>
<!-- d6&#45;&gt;e_disk -->
<g id="edge16" class="edge">
<title>d6&#45;&gt;e_disk</title>
<path fill="none" stroke="#4b5563" stroke-width="1.2" d="M1041.59,-25C1100.77,-25 1209.18,-25 1301.75,-25 1301.75,-25 1301.75,-25 1665.5,-25 1716.21,-25 1772.94,-30.11 1817.41,-35.29"/>
<polygon fill="#4b5563" stroke="#4b5563" stroke-width="1.2" points="1827.28,-36.46 1816.82,-39.75 1823.76,-36.14 1817.34,-35.38 1817.35,-35.28 1817.36,-35.18 1823.78,-35.94 1817.89,-30.81 1827.28,-36.46"/>
</g>
<!-- p13 -->
<g id="node8" class="node">
<title>p13</title>
<path fill="#e9f2fd" stroke="#3a72b0" stroke-width="1.2" d="M1505.75,-181C1505.75,-181 1368,-181 1368,-181 1362,-181 1356,-175 1356,-169 1356,-169 1356,-157 1356,-157 1356,-151 1362,-145 1368,-145 1368,-145 1505.75,-145 1505.75,-145 1511.75,-145 1517.75,-151 1517.75,-157 1517.75,-157 1517.75,-169 1517.75,-169 1517.75,-175 1511.75,-181 1505.75,-181"/>
<path fill="#e9f2fd" stroke="none" d="M1366,-148C1366,-148 1507.75,-148 1507.75,-148 1512.75,-148 1517.75,-153 1517.75,-158 1517.75,-158 1517.75,-168 1517.75,-168 1517.75,-173 1512.75,-178 1507.75,-178 1507.75,-178 1366,-178 1366,-178 1361,-178 1356,-173 1356,-168 1356,-168 1356,-158 1356,-158 1356,-153 1361,-148 1366,-148"/>
<polygon fill="#3a72b0" stroke="none" points="1356,-148 1356,-178 1387,-178 1387,-148 1356,-148"/>
<text xml:space="preserve" text-anchor="start" x="1361" y="-162.18" font-family="Source Han Sans CN" font-weight="bold" font-size="11.00" fill="white">P13</text>
<text xml:space="preserve" text-anchor="start" x="1392" y="-163.55" font-family="Source Han Sans CN" font-size="11.00" fill="#1f2a37">Company.save / restore</text>
<text xml:space="preserve" text-anchor="start" x="1392" y="-154.45" font-family="Source Han Sans CN" font-size="9.00" fill="#5a6472">整公司一份 JSON</text>
</g>
<!-- d3&#45;&gt;p13 -->
<g id="edge11" class="edge">
<title>d3&#45;&gt;p13</title>
<path fill="none" stroke="#4b5563" stroke-width="1.2" d="M1249.33,-109.29C1284.22,-119.34 1325.8,-131.31 1360.83,-141.39"/>
<polygon fill="#4b5563" stroke="#4b5563" stroke-width="1.2" points="1370.08,-144.06 1359.22,-145.61 1366.65,-143.17 1360.44,-141.39 1360.47,-141.29 1360.49,-141.19 1366.7,-142.98 1361.71,-136.97 1370.08,-144.06"/>
<text xml:space="preserve" text-anchor="middle" x="1302.75" y="-134.94" font-family="Source Han Sans CN" font-size="9.00" fill="#374151"> 对话 </text>
</g>
<!-- d5 -->
<g id="node9" class="node">
<title>d5</title>
<polyline fill="none" stroke="#9a8b3a" points="1707.25,-140 1621.75,-140"/>
<text xml:space="preserve" text-anchor="start" x="1624.75" y="-119.55" font-family="Source Han Sans CN" font-weight="bold" font-size="11.00" fill="#3b3a2a">D5</text>
<text xml:space="preserve" text-anchor="start" x="1639" y="-119.55" font-family="Source Han Sans CN" font-size="11.00" fill="#3b3a2a"> state.json</text>
<text xml:space="preserve" text-anchor="start" x="1624.75" y="-110.45" font-family="Source Han Sans CN" font-size="9.00" fill="#6b7280">CompanySnapshot</text>
<polyline fill="none" stroke="#9a8b3a" points="1621.75,-98 1707.25,-98"/>
</g>
<!-- p13&#45;&gt;d5 -->
<g id="edge13" class="edge">
<title>p13&#45;&gt;d5</title>
<path fill="none" stroke="#b8526a" stroke-width="1.4" d="M1518.06,-147.36C1545.86,-141.94 1576.56,-135.95 1602.56,-130.88"/>
<polygon fill="#b8526a" stroke="#b8526a" stroke-width="1.4" points="1612.09,-129.03 1603.14,-135.36 1608.9,-129.85 1602.32,-131.14 1602.28,-130.94 1602.24,-130.74 1608.82,-129.46 1601.42,-126.52 1612.09,-129.03"/>
<text xml:space="preserve" text-anchor="middle" x="1565.75" y="-144.63" font-family="Source Han Sans CN" font-size="9.00" fill="#374151"> save() </text>
</g>
<!-- d5&#45;&gt;p13 -->
<g id="edge14" class="edge">
<title>d5&#45;&gt;p13</title>
<path fill="none" stroke="#b8526a" stroke-width="1.4" d="M1613.98,-113.3C1594.15,-112.2 1571.21,-112.45 1550.75,-116.5 1527.66,-121.07 1503.37,-130.42 1483.26,-139.55"/>
<polygon fill="#b8526a" stroke="#b8526a" stroke-width="1.4" points="1474.39,-143.7 1481.54,-135.38 1477.29,-142.12 1483.37,-139.28 1483.45,-139.46 1483.53,-139.64 1477.46,-142.48 1485.36,-143.54 1474.39,-143.7"/>
<text xml:space="preserve" text-anchor="middle" x="1565.75" y="-121.45" font-family="Source Han Sans CN" font-size="9.00" fill="#374151"> load() </text>
</g>
<!-- d5&#45;&gt;e_disk -->
<g id="edge15" class="edge">
<title>d5&#45;&gt;e_disk</title>
<path fill="none" stroke="#4b5563" stroke-width="1.2" d="M1715.2,-103.25C1747.69,-92.96 1790.58,-79.37 1826.42,-68.01"/>
<polygon fill="#4b5563" stroke="#4b5563" stroke-width="1.2" points="1835.9,-65 1827.73,-72.31 1832.56,-66.17 1826.4,-68.12 1826.37,-68.02 1826.34,-67.93 1832.5,-65.98 1825.01,-63.73 1835.9,-65"/>
<text xml:space="preserve" text-anchor="middle" x="1772.25" y="-96.14" font-family="Source Han Sans CN" font-size="9.00" fill="#374151"> JSON 文件 </text>
</g>
<!-- p14&#45;&gt;d8 -->
<g id="edge17" class="edge">
<title>p14&#45;&gt;d8</title>
<path fill="none" stroke="#b8526a" stroke-width="1.4" d="M864.86,-322.45C884.02,-315.8 906.21,-308.68 926.75,-303.5 981.06,-289.79 1043.21,-279.11 1091.54,-271.89"/>
<polygon fill="#b8526a" stroke="#b8526a" stroke-width="1.4" points="1101.19,-270.47 1091.96,-276.38 1097.96,-271.14 1091.33,-272.12 1091.3,-271.92 1091.27,-271.73 1097.9,-270.75 1090.64,-267.47 1101.19,-270.47"/>
<text xml:space="preserve" text-anchor="middle" x="996.5" y="-308.45" font-family="Source Han Sans CN" font-size="9.00" fill="#374151"> hire / onboard / resign </text>
</g>
<!-- d1 -->
<g id="node13" class="node">
<title>d1</title>
<polyline fill="none" stroke="#9a8b3a" points="1220.5,-385 1128.25,-385"/>
<text xml:space="preserve" text-anchor="start" x="1131.25" y="-364.55" font-family="Source Han Sans CN" font-weight="bold" font-size="11.00" fill="#3b3a2a">D1</text>
<text xml:space="preserve" text-anchor="start" x="1145.5" y="-364.55" font-family="Source Han Sans CN" font-size="11.00" fill="#3b3a2a"> AgentMailbox</text>
<text xml:space="preserve" text-anchor="start" x="1131.25" y="-355.45" font-family="Source Han Sans CN" font-size="9.00" fill="#6b7280">ready / deferred</text>
<polyline fill="none" stroke="#9a8b3a" points="1128.25,-343 1220.5,-343"/>
</g>
<!-- p14&#45;&gt;d1 -->
<g id="edge18" class="edge">
<title>p14&#45;&gt;d1</title>
<path fill="none" stroke="#4b5563" stroke-width="1.2" d="M893.17,-358.35C904.39,-360.26 915.83,-361.91 926.75,-363 988.41,-369.14 1059.18,-368.66 1109.05,-367.08"/>
<polygon fill="#4b5563" stroke="#4b5563" stroke-width="1.2" points="1118.84,-366.74 1109,-371.58 1115.31,-366.96 1108.85,-367.18 1108.85,-367.08 1108.85,-366.98 1115.3,-366.76 1108.7,-362.59 1118.84,-366.74"/>
<text xml:space="preserve" text-anchor="middle" x="996.5" y="-373.05" font-family="Source Han Sans CN" font-size="9.00" fill="#374151"> 新角色的队列 </text>
</g>
<!-- d8&#45;&gt;p13 -->
<g id="edge9" class="edge">
<title>d8&#45;&gt;p13</title>
<path fill="none" stroke="#b8526a" stroke-width="1.4" d="M1241.78,-236.02C1282.98,-220.52 1335.5,-200.76 1375.52,-185.71"/>
<polygon fill="#b8526a" stroke="#b8526a" stroke-width="1.4" points="1384.86,-182.19 1377.08,-189.93 1381.84,-183.54 1375.57,-185.9 1375.5,-185.71 1375.43,-185.53 1381.7,-183.17 1373.91,-181.5 1384.86,-182.19"/>
<text xml:space="preserve" text-anchor="middle" x="1302.75" y="-222.82" font-family="Source Han Sans CN" font-size="9.00" fill="#374151"> 角色快照 </text>
</g>
<!-- d8&#45;&gt;p14 -->
<g id="edge19" class="edge">
<title>d8&#45;&gt;p14</title>
<path fill="none" stroke="#4b5563" stroke-width="1.2" stroke-dasharray="5,2" d="M1136.36,-285.94C1116.45,-298.06 1090.96,-311.58 1066.25,-319 1013.92,-334.72 952.91,-340.34 904.12,-341.97"/>
<polygon fill="#4b5563" stroke="#4b5563" stroke-width="1.2" points="894.41,-342.24 904.28,-337.47 897.94,-342.05 904.4,-341.87 904.41,-341.97 904.41,-342.07 897.95,-342.25 904.53,-346.46 894.41,-342.24"/>
<text xml:space="preserve" text-anchor="middle" x="996.5" y="-345.62" font-family="Source Han Sans CN" font-size="9.00" fill="#374151"> 候选 / 花名册 </text>
</g>
<!-- d1&#45;&gt;p13 -->
<g id="edge10" class="edge">
<title>d1&#45;&gt;p13</title>
<path fill="none" stroke="#4b5563" stroke-width="1.2" d="M1207.58,-339.15C1257.43,-300.69 1352.76,-227.13 1403.01,-188.36"/>
<polygon fill="#4b5563" stroke="#4b5563" stroke-width="1.2" points="1410.69,-182.43 1405.52,-192.1 1407.95,-184.67 1402.83,-188.62 1402.77,-188.54 1402.71,-188.46 1407.83,-184.52 1400.02,-184.98 1410.69,-182.43"/>
<text xml:space="preserve" text-anchor="middle" x="1302.75" y="-280.48" font-family="Source Han Sans CN" font-size="9.00" fill="#374151"> 队列 </text>
</g>
<!-- d2&#45;&gt;p13 -->
<g id="edge12" class="edge">
<title>d2&#45;&gt;p13</title>
<path fill="none" stroke="#4b5563" stroke-width="1.2" d="M1053.02,-151.65C1126.3,-153.82 1256.28,-157.67 1344.23,-160.28"/>
<polygon fill="#4b5563" stroke="#4b5563" stroke-width="1.2" points="1354.09,-160.57 1343.96,-164.78 1350.55,-160.57 1344.09,-160.38 1344.09,-160.28 1344.1,-160.18 1350.56,-160.37 1344.23,-155.78 1354.09,-160.57"/>
<text xml:space="preserve" text-anchor="middle" x="1174.38" y="-162.28" font-family="Source Han Sans CN" font-size="9.00" fill="#374151"> 提醒 </text>
</g>
<!-- e_client -->
<g id="node15" class="node">
<title>e_client</title>
<polygon fill="#e6e7ec" stroke="#454c57" stroke-width="1.2" points="472.75,-131 372.75,-131 372.75,-95 472.75,-95 472.75,-131"/>
<polygon fill="#e6e7ec" stroke="none" points="372.75,-98 372.75,-128 472.75,-128 472.75,-98 372.75,-98"/>
<text xml:space="preserve" text-anchor="start" x="377.75" y="-113.55" font-family="Source Han Sans CN" font-weight="bold" font-size="11.00" fill="#1f2a37">E3</text>
<text xml:space="preserve" text-anchor="start" x="391.25" y="-113.55" font-family="Source Han Sans CN" font-size="11.00" fill="#1f2a37"> 客户 / 用户</text>
<text xml:space="preserve" text-anchor="start" x="377.75" y="-104.45" font-family="Source Han Sans CN" font-size="9.00" fill="#6b7280">暂停 · 恢复 · 看状态</text>
</g>
<!-- e_client&#45;&gt;p0b -->
<g id="edge20" class="edge">
<title>e_client&#45;&gt;p0b</title>
<path fill="none" stroke="#b8526a" stroke-width="1.4" d="M473.05,-124.15C535.64,-138.3 644.82,-162.98 722.55,-180.55"/>
<polygon fill="#b8526a" stroke="#b8526a" stroke-width="1.4" points="732.12,-182.72 721.38,-184.9 728.86,-182.18 722.32,-180.71 722.37,-180.51 722.41,-180.32 728.95,-181.79 723.36,-176.12 732.12,-182.72"/>
<text xml:space="preserve" text-anchor="middle" x="630" y="-179.95" font-family="Source Han Sans CN" font-size="9.00" fill="#374151"> pause(reason) / resume() </text>
</g>
<!-- legend -->
<g id="node16" class="node">
<title>legend</title>
<polygon fill="#f4f5f7" stroke="none" points="19.25,-649.88 19.25,-673.12 148.25,-673.12 148.25,-649.88 19.25,-649.88"/>
<text xml:space="preserve" text-anchor="start" x="22.25" y="-660.67" font-family="Source Han Sans CN" font-weight="bold" font-size="11.00" fill="#8a929c">图例</text>
<polygon fill="#f4f5f7" stroke="none" points="19.25,-630.38 19.25,-649.88 148.25,-649.88 148.25,-630.38 19.25,-630.38"/>
<text xml:space="preserve" text-anchor="start" x="22.25" y="-636.38" font-family="Source Han Sans CN" font-size="9.00">矩形 = 外部实体 E</text>
<polygon fill="#f4f5f7" stroke="none" points="19.25,-610.88 19.25,-630.38 148.25,-630.38 148.25,-610.88 19.25,-610.88"/>
<text xml:space="preserve" text-anchor="start" x="22.25" y="-616.88" font-family="Source Han Sans CN" font-size="9.00">圆角 = 处理 P</text>
<polygon fill="#f4f5f7" stroke="none" points="19.25,-591.38 19.25,-610.88 148.25,-610.88 148.25,-591.38 19.25,-591.38"/>
<text xml:space="preserve" text-anchor="start" x="22.25" y="-597.38" font-family="Source Han Sans CN" font-size="9.00">横线夹字 = 数据存储 D</text>
<polygon fill="#f4f5f7" stroke="none" points="19.25,-571.88 19.25,-591.38 148.25,-591.38 148.25,-571.88 19.25,-571.88"/>
<text xml:space="preserve" text-anchor="start" x="22.25" y="-577.88" font-family="Source Han Sans CN" font-size="9.00">实线 = 主数据流</text>
<polygon fill="#f4f5f7" stroke="none" points="19.25,-552.38 19.25,-571.88 148.25,-571.88 148.25,-552.38 19.25,-552.38"/>
<text xml:space="preserve" text-anchor="start" x="22.25" y="-558.38" font-family="Source Han Sans CN" font-size="9.00">虚线 = 查询 / 次要流</text>
<polygon fill="#f4f5f7" stroke="none" points="19.25,-532.88 19.25,-552.38 148.25,-552.38 148.25,-532.88 19.25,-532.88"/>
<text xml:space="preserve" text-anchor="start" x="22.25" y="-538.88" font-family="Source Han Sans CN" font-size="9.00"> </text>
<polygon fill="#f4f5f7" stroke="none" points="19.25,-513.38 19.25,-532.88 148.25,-532.88 148.25,-513.38 19.25,-513.38"/>
<text xml:space="preserve" text-anchor="start" x="22.25" y="-519.38" font-family="Source Han Sans CN" font-size="9.00">启动顺序：</text>
<polygon fill="#f4f5f7" stroke="none" points="19.25,-493.88 19.25,-513.38 148.25,-513.38 148.25,-493.88 19.25,-493.88"/>
<text xml:space="preserve" text-anchor="start" x="22.25" y="-499.88" font-family="Source Han Sans CN" font-size="9.00">P0 造共享件 → P0.1 起线程 →</text>
<polygon fill="#f4f5f7" stroke="none" points="19.25,-474.38 19.25,-493.88 148.25,-493.88 148.25,-474.38 19.25,-474.38"/>
<text xml:space="preserve" text-anchor="start" x="22.25" y="-480.38" font-family="Source Han Sans CN" font-size="9.00">P14 复原 / 招聘 → P3 上班。</text>
<polygon fill="#f4f5f7" stroke="none" points="19.25,-454.88 19.25,-474.38 148.25,-474.38 148.25,-454.88 19.25,-454.88"/>
<text xml:space="preserve" text-anchor="start" x="22.25" y="-460.88" font-family="Source Han Sans CN" font-size="9.00"> </text>
<polygon fill="#f4f5f7" stroke="none" points="19.25,-435.38 19.25,-454.88 148.25,-454.88 148.25,-435.38 19.25,-435.38"/>
<text xml:space="preserve" text-anchor="start" x="22.25" y="-441.38" font-family="Source Han Sans CN" font-size="9.00">恢复语义：state.json 里的</text>
<polygon fill="#f4f5f7" stroke="none" points="19.25,-415.88 19.25,-435.38 148.25,-435.38 148.25,-415.88 19.25,-415.88"/>
<text xml:space="preserve" text-anchor="start" x="22.25" y="-421.88" font-family="Source Han Sans CN" font-size="9.00">队列与历史重新灌回 D1 / D8，</text>
<polygon fill="#f4f5f7" stroke="none" points="19.25,-396.38 19.25,-415.88 148.25,-415.88 148.25,-396.38 19.25,-396.38"/>
<text xml:space="preserve" text-anchor="start" x="22.25" y="-402.38" font-family="Source Han Sans CN" font-size="9.00">未完成任务不会丢。</text>
<polygon fill="#f4f5f7" stroke="none" points="19.25,-376.88 19.25,-396.38 148.25,-396.38 148.25,-376.88 19.25,-376.88"/>
<text xml:space="preserve" text-anchor="start" x="22.25" y="-382.88" font-family="Source Han Sans CN" font-size="9.00"> </text>
<polygon fill="#f4f5f7" stroke="none" points="19.25,-357.38 19.25,-376.88 148.25,-376.88 148.25,-357.38 19.25,-357.38"/>
<text xml:space="preserve" text-anchor="start" x="22.25" y="-363.38" font-family="Source Han Sans CN" font-size="9.00">P0.1 的 pause 不影响正在</text>
<polygon fill="#f4f5f7" stroke="none" points="19.25,-337.88 19.25,-357.38 148.25,-357.38 148.25,-337.88 19.25,-337.88"/>
<text xml:space="preserve" text-anchor="start" x="22.25" y="-343.88" font-family="Source Han Sans CN" font-size="9.00">跑的一轮工具调用，只在</text>
<polygon fill="#f4f5f7" stroke="none" points="19.25,-318.38 19.25,-337.88 148.25,-337.88 148.25,-318.38 19.25,-318.38"/>
<text xml:space="preserve" text-anchor="start" x="22.25" y="-324.38" font-family="Source Han Sans CN" font-size="9.00">TaskRunner 取下一个任务时</text>
<polygon fill="#f4f5f7" stroke="none" points="19.25,-298.88 19.25,-318.38 148.25,-318.38 148.25,-298.88 19.25,-298.88"/>
<text xml:space="preserve" text-anchor="start" x="22.25" y="-304.88" font-family="Source Han Sans CN" font-size="9.00">和 onShiftEnd 处生效。</text>
</g>
</g>
</svg>
